<svg width="20" height="20" viewBox="0 0 20 20" fill="none" xmlns="http://www.w3.org/2000/svg">
<g clip-path="url(#clip0_2040_433)">
<path d="M17.5102 19.5H2.49023C1.48323 19.5 0.674232 19.095 0.270232 18.389C-0.133768 17.682 -0.0847681 16.759 0.406232 15.859L7.98323 1.929C8.47723 1.02 9.21123 0.5 9.99523 0.5C10.7802 0.5 11.5132 1.02 12.0072 1.927L19.5932 15.86C20.0832 16.761 20.1332 17.683 19.7292 18.39C19.3252 19.097 18.5172 19.5 17.5102 19.5ZM9.99523 1.962C9.74523 1.962 9.46023 2.216 9.22823 2.641L1.65223 16.57C1.41423 17.008 1.35923 17.4 1.50123 17.648C1.64323 17.896 2.00423 18.038 2.49123 18.038H17.5102C17.9982 18.038 18.3602 17.896 18.5012 17.648C18.6422 17.401 18.5872 17.008 18.3492 16.572L10.7632 2.64C10.5332 2.215 10.2452 1.961 9.99623 1.961M10.0002 12.904C9.90542 12.903 9.81175 12.8832 9.7246 12.8459C9.63745 12.8085 9.55853 12.7543 9.49237 12.6864C9.42622 12.6185 9.37413 12.5382 9.33909 12.4501C9.30406 12.362 9.28678 12.2678 9.28823 12.173V5.593C9.28823 5.189 9.60723 4.861 10.0002 4.861C10.3942 4.861 10.7132 5.189 10.7132 5.592V12.172C10.7132 12.577 10.3932 12.904 10.0002 12.904ZM9.99523 16.478C10.6092 16.478 11.1052 15.967 11.1052 15.336C11.1052 14.705 10.6092 14.196 9.99523 14.196C9.38223 14.196 8.88523 14.706 8.88523 15.336C8.88523 15.966 9.38223 16.478 9.99523 16.478Z" fill="black"/>
</g>
<defs>
<clipPath id="clip0_2040_433">
<rect width="20" height="20" fill="white"/>
</clipPath>
</defs>
</svg>
